<?xml version="1.0" encoding="utf-8"?>
<!-- Generator: Adobe Illustrator 27.2.0, SVG Export Plug-In . SVG Version: 6.00 Build 0)  -->
<svg version="1.1" id="Layer_1" xmlns="http://www.w3.org/2000/svg" xmlns:xlink="http://www.w3.org/1999/xlink" x="0px" y="0px"
	 viewBox="0 0 28.8 42.2" style="enable-background:new 0 0 28.8 42.2;" xml:space="preserve">
<style type="text/css">
	.st0{fill:#153424;}
	.st1{fill:#FFFFFF;}
</style>
<g>
	<g>
		<path class="st0" d="M27.9,14.5l-0.5-1.1c-0.5-1.2-0.8-2.5-0.8-3.8H27c1,0,1.8-0.8,1.8-1.8V2c0-0.8-0.5-1.4-1.1-1.7V0H10.9v0.1
			C10,0.2,9.3,1,9.3,2v5.9c0,1,0.8,1.8,1.8,1.8h0.4c-0.2,1.5-0.6,2.9-1.3,4.2l0,0c-0.8,1.5-2.2,2.5-3.9,2.9L1.6,18
			c-1.5,0.5-1.7,1.7-1.5,2.6c0.4,1.9,2.2,1.7,2.8,1.7c0.7,0,2.1,0,2.8,0l3.7,0.1l0,17c0,1.6,1.3,2.9,2.9,2.9c1.6,0,2.9-1.3,2.9-2.9
			v-7.5c0.5,0.3,1,0.5,1.7,0.5c1.2,0,2.1-0.6,2.6-1.6c0.5,0.5,1.2,0.8,2,0.8c1.2,0,2.2-0.7,2.7-1.7c0.5,0.5,1.2,0.7,1.9,0.7
			c1.6,0,2.9-1.3,2.9-2.9v-8.3C28.8,17.6,28.5,16,27.9,14.5z M27.6,27.6c0,0.9-0.8,1.6-1.7,1.6s-1.7-0.7-1.7-1.6
			c0-0.3-0.3-0.6-0.6-0.6c-0.3,0-0.6,0.3-0.6,0.6v1c0,0.9-0.8,1.7-1.7,1.7s-1.7-0.8-1.7-1.7c0-0.3-0.3-0.6-0.6-0.6
			c-0.3,0-0.6,0.3-0.6,0.6v0.9c0,0.9-0.7,1.7-1.7,1.7c-0.9,0-1.7-0.7-1.7-1.7c0-0.3-0.3-0.6-0.6-0.6c-0.3,0-0.6,0.3-0.6,0.6v9.9
			c0,0.9-0.8,1.6-1.7,1.6c-0.9,0-1.7-0.7-1.7-1.6V22c0-0.2-0.1-0.5-0.4-0.6c-0.1-0.1-2.8-0.1-4.8-0.1c-0.9,0-1.6,0-2.8,0
			c-0.4,0-0.7,0-0.9-0.1c-0.8-0.3-1.2-1.4-0.6-2c0.1-0.2,0.3-0.3,0.6-0.4l5.3-1.2c1.7-0.4,3.1-1.4,4-2.9c0.1-0.1,0.1-0.2,0.2-0.3
			c0.8-1.5,1.3-3.1,1.5-4.8h12.6c0.1,1.4,0.4,2.9,0.9,4.2l0.5,1.1c0.6,1.4,0.9,2.8,0.9,4.3V27.6z"/>
		<path class="st1" d="M12.2,40.9c-0.9,0-1.7-0.7-1.7-1.6V21.9c0-0.2-0.2-0.5-0.4-0.6c-0.2-0.1-2.8-0.1-4.8-0.1c-0.9,0-1.6,0-2.7,0
			c-0.4,0-0.7,0-0.9-0.1c-0.8-0.3-1.2-1.4-0.6-2c0.1-0.2,0.3-0.3,0.6-0.4l5.3-1.2c1.7-0.4,3.1-1.4,4-2.9c0.1-0.1,0.1-0.2,0.2-0.3
			c0.8-1.5,1.3-3.1,1.5-4.8h12.6c0.1,1.4,0.4,2.9,0.9,4.2l0.5,1.1c0.6,1.4,0.9,2.8,0.9,4.3v8.3c0,0.9-0.8,1.6-1.7,1.6
			c-0.9,0-1.7-0.7-1.7-1.6c0-0.3-0.3-0.6-0.6-0.6c-0.3,0-0.6,0.3-0.6,0.6v1c0,0.9-0.8,1.7-1.7,1.7s-1.7-0.8-1.7-1.7
			c0-0.3-0.3-0.6-0.6-0.6c-0.3,0-0.6,0.3-0.6,0.6v0.9c0,0.9-0.7,1.7-1.7,1.7c-0.9,0-1.7-0.7-1.7-1.7c0-0.3-0.3-0.6-0.6-0.6
			c-0.3,0-0.6,0.3-0.6,0.6v9.9C13.9,40.2,13.1,40.9,12.2,40.9z"/>
		<path class="st1" d="M14.8,4.9c0-0.7-0.6-1.3-1.3-1.3c-0.7,0-1.3,0.6-1.3,1.3c0,0.7,0.6,1.3,1.3,1.3C14.2,6.1,14.8,5.6,14.8,4.9
			L14.8,4.9z"/>
	</g>
</g>
</svg>
