<?xml version="1.0" encoding="utf-8"?>
<!-- Generator: Adobe Illustrator 24.3.0, SVG Export Plug-In . SVG Version: 6.00 Build 0)  -->
<svg version="1.1" id="LogoMini" xmlns="http://www.w3.org/2000/svg" xmlns:xlink="http://www.w3.org/1999/xlink" x="0px" y="0px"
	 viewBox="0 0 54.1 54.1" style="enable-background:new 0 0 54.1 54.1;" xml:space="preserve">
<style type="text/css">
	.st0{fill:#3F5C40;}
</style>
<g id="SkinMini">
	<path class="st0" d="M27.1,0C12.1,0,0,12.1,0,27.1c0,9,4.4,17,11.2,21.9V14.6l7,0.1V7.5h9.6c10.6,0,19.1,8.6,19.1,19.1l0,0
		c0,10.6-8.6,19.1-19.1,19.1h-9.6v-2.8h9.4c9,0,16.2-7.3,16.2-16.2l0,0c0-9-7.3-16.2-16.2-16.2h-6.4v4.3h6c6.6,0,12,5.3,12,11.9
		s-5.3,11.9-11.9,11.9h-9v-17h3v14.2h6c5.1,0,9.2-4.1,9.2-9.2s-4.1-9.2-9.2-9.2H14.1v33.5c3.8,2.1,8.3,3.3,13,3.3
		c14.9-0.1,27-12.2,27-27.1S42,0,27.1,0z"/>
</g>
</svg>
