<?xml version="1.0" encoding="utf-8"?>
<!-- Generator: Adobe Illustrator 27.3.1, SVG Export Plug-In . SVG Version: 6.00 Build 0)  -->
<svg version="1.1" id="Layer_1" xmlns="http://www.w3.org/2000/svg" xmlns:xlink="http://www.w3.org/1999/xlink" x="0px" y="0px"
	 viewBox="0 0 28.8 139.1" style="enable-background:new 0 0 28.8 139.1;" xml:space="preserve">
<style type="text/css">
	.st0{fill:#153424;}
	.st1{fill:#FFFFFF;}
</style>
<g>
	<g>
		<path class="st0" d="M15.1,136.2v-7.5c0.5,0.3,1,0.5,1.7,0.5c1.2,0,2.1-0.6,2.6-1.6c0.5,0.5,1.2,0.8,2,0.8c1.2,0,2.2-0.7,2.7-1.7
			c0.5,0.5,1.2,0.7,1.9,0.7c1.6,0,2.9-1.3,2.9-2.9v-8.3c0-1.6-0.3-3.3-1-4.8l-0.5-1.1c-0.5-1.2-0.8-2.5-0.9-3.8H27
			c1,0,1.8-0.8,1.8-1.8v-5.9c0-0.8-0.5-1.4-1.1-1.7V0L10.9,0h0v97.1C10,97.2,9.3,98,9.3,98.9v5.9c0,1,0.8,1.8,1.8,1.8h0.4
			c-0.2,1.5-0.6,2.9-1.3,4.2l0,0c-0.8,1.5-2.2,2.5-3.9,2.9l-4.7,1.2c-1.5,0.5-1.7,1.7-1.5,2.6c0.4,1.9,2.2,1.7,2.8,1.7
			c0.7,0,2.1,0,2.8,0l3.7,0.1l0,17c0,1.6,1.3,2.9,2.9,2.9C13.8,139.1,15.1,137.8,15.1,136.2z M10.5,136.2v-17.3
			c0-0.2-0.2-0.5-0.4-0.6c-0.2-0.1-2.8-0.1-4.8-0.1c-0.9,0-1.6,0-2.7,0c-0.4,0-0.7,0-0.9-0.1c-0.8-0.3-1.2-1.4-0.6-2
			c0.1-0.2,0.3-0.3,0.6-0.4l5.3-1.2c1.7-0.4,3.1-1.4,4-2.9c0.1-0.1,0.1-0.2,0.2-0.3c0.8-1.5,1.3-3.1,1.5-4.8h12.6
			c0.1,1.4,0.4,2.9,0.9,4.2l0.5,1.1c0.6,1.4,0.9,2.8,0.9,4.3v8.3c0,0.9-0.8,1.6-1.7,1.6c-0.9,0-1.7-0.7-1.7-1.6
			c0-0.3-0.3-0.6-0.6-0.6c-0.3,0-0.6,0.3-0.6,0.6v1c0,0.9-0.8,1.7-1.7,1.7s-1.7-0.8-1.7-1.7c0-0.3-0.3-0.6-0.6-0.6
			c-0.3,0-0.6,0.3-0.6,0.6v0.9c0,0.9-0.7,1.7-1.7,1.7c-0.9,0-1.7-0.7-1.7-1.7c0-0.3-0.3-0.6-0.6-0.6c-0.3,0-0.6,0.3-0.6,0.6v9.9
			c0,0.9-0.8,1.6-1.7,1.6C11.3,137.9,10.5,137.2,10.5,136.2z"/>
		<path class="st1" d="M12.2,137.9c-0.9,0-1.7-0.7-1.7-1.6v-17.3c0-0.2-0.2-0.5-0.4-0.6c-0.2-0.1-2.8-0.1-4.8-0.1
			c-0.9,0-1.6,0-2.7,0c-0.4,0-0.7,0-0.9-0.1c-0.8-0.3-1.2-1.4-0.6-2c0.1-0.2,0.3-0.3,0.6-0.4l5.3-1.2c1.7-0.4,3.1-1.4,4-2.9
			c0.1-0.1,0.1-0.2,0.2-0.3c0.8-1.5,1.3-3.1,1.5-4.8h12.6c0.1,1.4,0.4,2.9,0.9,4.2l0.5,1.1c0.6,1.4,0.9,2.8,0.9,4.3v8.3
			c0,0.9-0.8,1.6-1.7,1.6c-0.9,0-1.7-0.7-1.7-1.6c0-0.3-0.3-0.6-0.6-0.6c-0.3,0-0.6,0.3-0.6,0.6v1c0,0.9-0.8,1.7-1.7,1.7
			s-1.7-0.8-1.7-1.7c0-0.3-0.3-0.6-0.6-0.6c-0.3,0-0.6,0.3-0.6,0.6v0.9c0,0.9-0.7,1.7-1.7,1.7c-0.9,0-1.7-0.7-1.7-1.7
			c0-0.3-0.3-0.6-0.6-0.6c-0.3,0-0.6,0.3-0.6,0.6v9.9C13.9,137.2,13.1,137.9,12.2,137.9z"/>
		<path class="st1" d="M14.8,101.9c0-0.7-0.6-1.3-1.3-1.3c-0.7,0-1.3,0.6-1.3,1.3c0,0.7,0.6,1.3,1.3,1.3
			C14.2,103.1,14.8,102.5,14.8,101.9L14.8,101.9z"/>
	</g>
</g>
</svg>
