<?xml version="1.0" encoding="utf-8"?>
<!-- Generator: Adobe Illustrator 27.2.0, SVG Export Plug-In . SVG Version: 6.00 Build 0)  -->
<svg version="1.1" id="Layer_1" xmlns="http://www.w3.org/2000/svg" xmlns:xlink="http://www.w3.org/1999/xlink" x="0px" y="0px"
	 viewBox="0 0 242.9 243.9" style="enable-background:new 0 0 242.9 243.9;" xml:space="preserve">
<style type="text/css">
	.st0{fill:#DDFCDF;}
</style>
<path class="st0" d="M12.7,89.4c0.3,1.6,1.2,3,2.5,3.9c1,0.7,2.2,1.1,3.4,1.1c0.3,0,0.7,0,1-0.1l70.9-12.5c3.3-0.6,5.4-3.7,4.9-7
	l-2.8-15.8c-0.6-3.3-3.7-5.4-6.9-4.9l-29.5,5.2C60.3,54.5,65,50,70.3,46c15.8-12.1,34.7-18.5,54.6-18.5c28.3,0,54.4,12.9,71.6,35.3
	c12.1,15.9,18.6,34.8,18.5,54.7c0,3.3,2.7,6,6,6l16,0h0c1.6,0,3.1-0.6,4.2-1.8c1.1-1.1,1.8-2.6,1.8-4.2c0-26.1-8.4-50.9-24.3-71.7
	C196.2,16.4,162-0.5,124.9-0.5C98.7-0.5,74,7.9,53.3,23.8C45.8,29.5,39,36.2,33.1,43.5l-5.3-29.8c-0.6-3.3-3.7-5.4-6.9-4.9L5.1,11.6
	c-3.3,0.6-5.4,3.7-4.9,7L12.7,89.4z M12.7,89.4"/>
<path class="st0" d="M230.3,153.6c-0.3-1.6-1.2-3-2.5-3.9c-1.3-0.9-2.9-1.3-4.5-1l-70.9,12.5c-3.3,0.6-5.4,3.7-4.9,7l2.8,15.8
	c0.6,3.3,3.7,5.4,7,4.9l29.5-5.2c-4.2,4.9-8.9,9.4-14.1,13.4c-15.8,12.1-34.7,18.5-54.6,18.5c-28.3,0-54.4-12.9-71.6-35.3
	C34.4,164.3,28,145.4,28,125.5c0-3.3-2.7-6-6-6l-16,0h0c-1.6,0-3.1,0.6-4.2,1.8c-1.1,1.1-1.8,2.7-1.8,4.2c0,26.1,8.4,50.9,24.3,71.7
	c22.5,29.4,56.7,46.2,93.8,46.2c26.1,0,50.9-8.4,71.6-24.3c7.5-5.7,14.3-12.4,20.2-19.7l5.3,29.8c0.5,2.9,3,5,5.9,5
	c0.3,0,0.7,0,1-0.1l15.8-2.8c3.3-0.6,5.4-3.7,4.9-7L230.3,153.6z M230.3,153.6"/>
</svg>
