<?xml version="1.0" encoding="utf-8"?>
<!-- Generator: Adobe Illustrator 27.9.0, SVG Export Plug-In . SVG Version: 6.00 Build 0)  -->
<svg version="1.1" id="Layer_1" xmlns="http://www.w3.org/2000/svg" xmlns:xlink="http://www.w3.org/1999/xlink" x="0px" y="0px"
	 viewBox="0 0 160.7 160.9" style="enable-background:new 0 0 160.7 160.9;" xml:space="preserve">
<style type="text/css">
	.st0{fill:#21749A;}
	.st1{opacity:0.5;}
	.st2{fill:#231F20;}
	.st3{fill:#0071AE;}
	.st4{fill:#F7F7F5;}
	.st5{fill:#390000;}
	.st6{fill:#FF9A00;}
	.st7{fill:#001834;}
	.st8{fill:#00A9FF;}
	.st9{fill:#49021F;}
	.st10{fill:#FF3366;}
	.st11{fill:url(#SVGID_1_);}
	.st12{fill:#FEFEFE;}
</style>
<rect y="0.2" class="st0" width="160.7" height="160.7"/>
<g>
	<path class="st12" d="M15.9,85.5c0-3.4,0-6.7,0-10.1c0.3-0.1,0.2-0.3,0.2-0.5c0.5-6.4,2-12.6,4.4-18.5
		c6.9-16.6,18.7-28.5,35.3-35.5c6-2.6,12.4-4,18.9-4.6c0.2,0,0.4,0.1,0.4-0.2c3.4,0,6.9,0,10.3,0c0,0.4,0.3,0.2,0.4,0.2
		c6.2,0.5,12.2,1.9,18,4.2c22.8,9,38.4,30,40.6,54.4c0,0.2-0.1,0.5,0.2,0.4c0,3.4,0,6.9,0,10.3c-0.4,0-0.2,0.3-0.2,0.4
		c-0.2,2.8-0.7,5.5-1.3,8.2c-4.5,20.7-19.5,38.4-39.2,46.1c-5.9,2.3-11.9,3.8-18.2,4.3c-0.2,0-0.5-0.1-0.5,0.2c-3.4,0-6.7,0-10.1,0
		c0-0.4-0.3-0.2-0.5-0.2c-1.6-0.1-3.3-0.4-4.9-0.6c-8.8-1.4-17-4.5-24.4-9.4C28.1,123,18.3,106.8,16.1,86
		C16.1,85.8,16.3,85.5,15.9,85.5z M80.3,19c-34,0.1-61.6,27.7-61.5,61.5c0.1,34,27.7,61.5,61.5,61.5c34-0.1,61.6-27.7,61.5-61.6
		C141.8,46.4,114.2,18.9,80.3,19z"/>
	<path class="st12" d="M66.6,114.4c-0.7-2.1-1.4-4.1-2-6.1c-5.9-17.7-11.9-35.4-17.9-53.1c-0.2-0.6-0.1-0.7,0.5-0.7
		c1.8-0.1,3.6-0.3,5.5-0.5c1.4-0.1,2.3-1.1,2.2-2.5c-0.1-1.4-1-2.2-2.5-2.1c-3.4,0.2-6.8,0.4-10.2,0.6c-2.5,0.1-4.9,0.1-7.4,0.1
		c-0.2,0-0.4,0.1-0.5-0.1c0-0.1,0.1-0.3,0.2-0.4c3.4-5.1,7.5-9.4,12.4-13.1c6.9-5.2,14.5-8.8,23.1-10.3c17.8-3.1,33.6,1.3,47.3,13.1
		c0.1,0.1,0.2,0.1,0.2,0.2c-0.1,0.3-0.3,0.2-0.4,0.2c-4.8-0.1-8.7,3.6-9.3,8.4c-0.4,2.5,0.2,4.9,1.2,7.2c1,2.3,2.4,4.4,3.7,6.5
		c1.7,2.8,3.1,5.7,4,8.8c1.4,4.9,1.2,9.8-0.2,14.7c-1.6,5.9-3.6,11.8-5.3,17.7c-1,3.4-2,6.8-3.1,10.2c-0.1,0.2-0.1,0.4-0.2,0.6
		c-0.3-0.2-0.3-0.4-0.3-0.6c-6.5-19.3-13-38.6-19.5-57.9c-0.2-0.7-0.2-0.7,0.5-0.8c1.8-0.2,3.6-0.3,5.5-0.5c1.7-0.2,2.6-1.6,2-3.1
		c-0.3-1-1.1-1.5-2.3-1.4c-1.7,0.1-3.5,0.2-5.2,0.3c-5.6,0.4-11.1,0.5-16.7,0.1c-2.4-0.2-4.9-0.3-7.3-0.4c-1.7-0.1-2.8,1.4-2.3,3
		c0.3,0.9,1,1.4,2,1.5c1.8,0.2,3.5,0.3,5.3,0.5c0.4,0,0.5,0.2,0.7,0.5c2.8,7.6,5.5,15.1,8.3,22.7c0.1,0.3,0.1,0.5,0,0.8
		c-3.9,11.8-7.9,23.5-11.8,35.3C66.8,114,66.7,114.1,66.6,114.4z"/>
	<path class="st12" d="M81.3,85.5c0.2,0.2,0.2,0.4,0.3,0.6c5.5,15.1,11,30.1,16.5,45.2c0.1,0.2,0.1,0.5,0.3,0.7
		c0.3,0.5,0.2,0.7-0.4,0.9c-7.4,2.5-15,3.3-22.8,2.6c-3.4-0.3-6.6-0.9-9.9-1.8c-0.5-0.1-0.6-0.3-0.4-0.8c5.4-15.6,10.8-31.3,16.2-47
		C81.2,85.8,81.2,85.6,81.3,85.5z"/>
	<path class="st12" d="M56.1,130.1c-1.8-0.7-3.4-1.7-5-2.7c-11.6-7.4-19.5-17.7-23.6-30.9c-2-6.4-2.6-12.9-2.2-19.5
		c0.4-6.3,1.8-12.3,4.3-18.1c0.1-0.2,0.2-0.3,0.2-0.5c0,0,0.1-0.1,0.1-0.1c0.2,0.1,0.2,0.3,0.3,0.5c8.6,23.6,17.2,47.2,25.8,70.8
		C56,129.6,56.1,129.8,56.1,130.1C56.1,130,56.1,130,56.1,130.1z"/>
	<path class="st12" d="M108.3,128c0.6-2,1.3-4,2-6c4.9-14.1,9.7-28.2,14.6-42.2c1.2-3.5,2.5-7.1,3.3-10.7c1-4.7,1.3-9.4,0.7-14.2
		c0-0.2,0-0.3,0-0.5c0.2,0.1,0.3,0.3,0.4,0.5c3,5.7,5,11.7,5.8,18.1c1.6,12.5-0.6,24.3-6.9,35.3c-4.8,8.3-11.3,14.9-19.6,19.8
		C108.6,128,108.5,128.1,108.3,128C108.3,128.1,108.3,128,108.3,128z"/>
</g>
</svg>
