<?xml version="1.0" encoding="utf-8"?>
<!-- Generator: Adobe Illustrator 27.3.1, SVG Export Plug-In . SVG Version: 6.00 Build 0)  -->
<svg version="1.1" id="Layer_1" xmlns="http://www.w3.org/2000/svg" xmlns:xlink="http://www.w3.org/1999/xlink" x="0px" y="0px"
	 viewBox="0 0 160.7 160.9" style="enable-background:new 0 0 160.7 160.9;" xml:space="preserve">
<style type="text/css">
	.st0{opacity:0.5;}
	.st1{fill:#231F20;}
	.st2{fill:#0071AE;}
	.st3{fill:#F7F7F5;}
	.st4{fill:#390000;}
	.st5{fill:#FF9A00;}
	.st6{fill:#001834;}
	.st7{fill:#00A9FF;}
	.st8{fill:#49021F;}
	.st9{fill:#FF3366;}
</style>
<g>
	<path class="st1" d="M160.7,0H0v160.7c0,0,0,0,0,0h160.7c0,0,0,0,0,0V0z M101.5,142.4c-3.2,0.6-4.4-1.4-4.4-3.1
		c0-2.1,0.1-9,0.1-17.6c0-6-2-9.9-4.3-11.9c14.2-1.6,29.2-7,29.2-31.6c0-7-2.5-12.7-6.6-17.2c0.7-1.6,2.8-8.1-0.6-17
		c0,0-5.4-1.7-17.6,6.6c-5.1-1.4-10.6-2.1-16-2.2c-5.4,0-10.9,0.7-16,2.2C53.1,42.3,47.7,44,47.7,44c-3.5,8.8-1.3,15.3-0.6,17
		c-4.1,4.5-6.6,10.2-6.6,17.2c0,24.6,14.9,30.1,29.1,31.7c-1.8,1.6-3.5,4.4-4.1,8.6c-3.6,1.6-12.9,4.5-18.6-5.3c0,0-3.4-6.1-9.8-6.6
		c0,0-6.2-0.1-0.4,3.9c0,0,4.2,2,7.1,9.4c0,0,3.8,12.5,21.5,8.6c0,5.3,0.1,9.4,0.1,10.9c0,1.7-1.2,3.7-4.4,3.1
		c-25.4-8.5-43.7-32.5-43.7-60.8c0-35.4,28.6-64.1,63.9-64.1c35.3,0,63.9,28.7,63.9,64.1C145.2,109.9,126.9,133.9,101.5,142.4z"/>
	<path class="st3" d="M145.2,81.6c0,28.3-18.3,52.3-43.7,60.8c-3.2,0.6-4.4-1.4-4.4-3.1c0-2.1,0.1-9,0.1-17.6c0-6-2-9.9-4.3-11.9
		c14.2-1.6,29.2-7,29.2-31.6c0-7-2.5-12.7-6.6-17.2c0.7-1.6,2.8-8.1-0.6-17c0,0-5.4-1.7-17.6,6.6c-5.1-1.4-10.6-2.1-16-2.2
		c-5.4,0-10.9,0.7-16,2.2C53.1,42.3,47.7,44,47.7,44c-3.5,8.8-1.3,15.3-0.6,17c-4.1,4.5-6.6,10.2-6.6,17.2
		c0,24.6,14.9,30.1,29.1,31.7c-1.8,1.6-3.5,4.4-4.1,8.6c-3.6,1.6-12.9,4.5-18.6-5.3c0,0-3.4-6.1-9.8-6.6c0,0-6.2-0.1-0.4,3.9
		c0,0,4.2,2,7.1,9.4c0,0,3.8,12.5,21.5,8.6c0,5.3,0.1,9.4,0.1,10.9c0,1.7-1.2,3.7-4.4,3.1c-25.4-8.5-43.7-32.5-43.7-60.8
		c0-35.4,28.6-64.1,63.9-64.1C116.6,17.5,145.2,46.2,145.2,81.6z"/>
</g>
</svg>
