<?xml version="1.0" encoding="UTF-8"?><svg id="Layer_1" xmlns="http://www.w3.org/2000/svg" viewBox="0 0 160.72 160.91"><defs><style>.cls-1{fill:#470137;}.cls-2{fill:#ff61f6;}</style></defs><rect class="cls-1" width="160.65" height="160.65"/><path class="cls-2" d="M84.45,48.43l-20.08,33.13,21.42,35.14c.13.27.2.54.13.8s-.33.07-.74.13h-15.33c-1.07,0-1.81-.07-2.28-.74-1.41-2.81-2.88-5.56-4.28-8.37-1.41-2.74-2.95-5.56-4.55-8.43s-3.21-5.76-4.82-8.7h-.13c-1.41,2.88-2.95,5.76-4.48,8.63s-3.08,5.76-4.55,8.57c-1.54,2.81-3.08,5.69-4.62,8.43-.27.67-.8.74-1.54.74h-14.73c-.27,0-.47.13-.47-.2-.07-.27,0-.54.13-.74l20.82-34.14-20.28-34.34c-.2-.27-.27-.54-.13-.67.13-.2.4-.27.67-.27h15.19c.33,0,.67.07.94.13.27.13.47.33.67.6,1.27,2.88,2.74,5.76,4.28,8.63,1.61,2.88,3.15,5.69,4.82,8.5,1.61,2.81,3.08,5.62,4.48,8.5h.13c1.41-2.95,2.88-5.82,4.35-8.63s3.01-5.62,4.55-8.43,3.01-5.69,4.48-8.43c.07-.27.2-.54.4-.67.27-.13.54-.2.87-.13h14.12c.33-.07.67.13.74.47.07.07-.07.33-.2.47h0Z"/><path class="cls-2" d="M115.38,119.05c-4.95.07-9.91-.94-14.39-3.01-4.22-1.94-7.7-5.15-10.11-9.1-2.48-4.08-3.68-9.17-3.68-15.26-.07-4.95,1.2-9.84,3.68-14.12,2.54-4.35,6.23-7.97,10.64-10.38,4.69-2.61,10.31-3.88,16.93-3.88.33,0,.8,0,1.41.07s1.27.07,2.08.13v-21.15c0-.47.2-.74.67-.74h13.59c.33-.07.6.2.67.47v63.86c0,1.2.07,2.54.13,4.02.13,1.41.2,2.74.27,3.88,0,.47-.2.87-.67,1.07-3.48,1.47-7.16,2.54-10.91,3.21-3.41.6-6.83.94-10.31.94ZM121.94,105.66v-29.45c-.6-.13-1.2-.27-1.81-.33-.74-.07-1.47-.13-2.21-.13-2.61,0-5.22.54-7.56,1.74-2.28,1.14-4.22,2.81-5.69,4.95s-2.21,5.02-2.21,8.5c-.07,2.34.33,4.69,1.14,6.89.67,1.81,1.67,3.41,3.01,4.75,1.27,1.2,2.81,2.14,4.55,2.68,1.81.6,3.68.87,5.56.87,1,0,1.94-.07,2.81-.13.87.07,1.61-.07,2.41-.33h0Z"/></svg>