<?xml version="1.0" encoding="UTF-8"?><svg id="Layer_1" xmlns="http://www.w3.org/2000/svg" viewBox="0 0 160.72 160.91"><defs><style>.cls-1{fill:#00a9ff;}.cls-1,.cls-2{stroke-width:0px;}.cls-2{fill:#001834;}</style></defs><rect class="cls-2" y="-.2" width="160.72" height="161.11"/><path class="cls-1" d="M29.9,115.8V43.92c0-.49.2-.79.69-.79,1.18,0,2.27,0,3.95-.1,1.68,0,3.46-.1,5.33-.1s3.95-.1,6.12-.1,4.25-.1,6.32-.1c4.94-.1,9.77.59,14.42,2.17,3.55,1.19,6.71,3.16,9.38,5.73,2.27,2.27,4.05,4.94,5.13,7.9,1.09,2.86,1.58,5.92,1.58,9.08,0,6.02-1.38,10.96-4.15,14.91-2.76,3.95-6.71,6.91-11.25,8.49-5.04,1.68-10.37,2.57-15.8,2.37-1.68,0-2.86,0-3.46-.1-.69,0-1.68-.1-3.06-.1v22.51c.1.49-.3.99-.79.99h-13.63c-.59,0-.79-.3-.79-.89h0ZM45.11,56.56v23.5c.99.1,1.88.1,2.67.1h3.75c4.85,0,10.58-1.14,13.82-5.04,2.93-3.51,2.87-9.68.49-13.43-2.64-4.18-8.52-5.5-13.13-5.33-1.78,0-3.36,0-4.74.1-1.38,0-2.37.1-2.86.1h0ZM45.11,56.56"/><path class="cls-1" d="M126.37,75.82c-2.07-1.09-4.34-1.88-6.71-2.37-2.57-.59-5.23-.89-7.8-.89-1.38,0-2.86.1-4.25.49-.89.2-1.68.69-2.17,1.38-.4.59-.59,1.28-.59,1.88,0,.69.3,1.28.69,1.78.69.79,1.48,1.38,2.37,1.88,1.58.89,3.26,1.68,4.94,2.27,3.75,1.28,7.41,2.96,10.76,5.13,2.27,1.48,4.15,3.46,5.53,5.83,1.09,2.27,1.68,4.74,1.68,7.21.1,3.26-.89,6.52-2.67,9.28-1.97,2.76-4.64,4.94-7.8,6.22-4.05,1.58-8.3,2.37-12.64,2.27-3.16,0-6.42-.29-9.48-.89-2.47-.49-4.84-1.19-7.11-2.27-.49-.3-.79-.79-.79-1.38v-12.14c0-.2.1-.49.3-.59.2-.1.49-.1.59.1,2.67,1.58,5.63,2.76,8.69,3.46,2.67.69,5.43.99,8.19,1.09,1.98.1,3.95-.2,5.83-.99,1.19-.49,1.88-1.68,1.88-2.96-.1-1.18-.69-2.17-1.68-2.86-2.17-1.38-4.44-2.47-6.91-3.26-3.56-1.19-6.91-2.96-9.97-5.04-2.17-1.58-4.05-3.56-5.33-5.92-1.09-2.17-1.68-4.64-1.68-7.11,0-2.96.79-5.92,2.37-8.49,1.78-2.77,4.34-5.04,7.31-6.42,3.85-1.78,8.09-2.67,12.34-2.47,2.86,0,5.82.2,8.69.59,2.07.3,4.15.79,6.02,1.68.3.1.59.3.69.59.1.3.1.59.1.89v11.36c0,.3-.1.49-.3.69-.49.1-.79.1-1.08,0h0ZM126.37,75.82"/></svg>