<?xml version="1.0" encoding="UTF-8"?><svg id="Layer_1" xmlns="http://www.w3.org/2000/svg" viewBox="0 0 160.72 160.91"><defs><style>.cls-1{fill:#bdd5ea;}.cls-1,.cls-2,.cls-3,.cls-4,.cls-5,.cls-6,.cls-7,.cls-8{stroke-width:0px;}.cls-2{fill:#a06044;}.cls-3{fill:#f5f6f7;}.cls-4{fill:#6d798e;}.cls-5{fill:#586478;}.cls-6{fill:#435063;}.cls-7{fill:#d6e5f2;}.cls-8{fill:#995436;}</style></defs><path class="cls-1" d="M114.02,38.02H46.83l6.63-9.79c2.45-3.61,6.53-5.77,10.89-5.77h32.15c4.36,0,8.44,2.16,10.89,5.77l6.63,9.79Z"/><rect class="cls-6" x="16.02" y="30.24" width="16.04" height="6.46" rx="2.29" ry="2.29"/><rect class="cls-7" y="33.47" width="160.72" height="104.98" rx="12.16" ry="12.16"/><rect class="cls-2" x="0" y="51.73" width="160.72" height="68.46"/><polygon class="cls-8" points="160.72 95.55 160.72 120.19 75.4 120.19 80.36 54.18 96.47 51.73 106.54 50.2 108.38 51.73 160.72 95.55"/><circle class="cls-3" cx="80.36" cy="85.96" r="44.32" transform="translate(-17.99 150.58) rotate(-80.24)"/><circle class="cls-6" cx="80.36" cy="85.96" r="39.1" transform="translate(-22.74 142.68) rotate(-75.74)"/><circle class="cls-5" cx="80.36" cy="85.96" r="31.78" transform="translate(-25.25 34.07) rotate(-20.76)"/><circle class="cls-6" cx="80.36" cy="85.96" r="16.33"/><ellipse class="cls-4" cx="65.48" cy="73.64" rx="13.58" ry="10.07" transform="translate(-31.83 58.14) rotate(-39.31)"/><circle class="cls-4" cx="89.94" cy="99.79" r="10.07" transform="translate(-18.16 179.55) rotate(-84.39)"/><path class="cls-6" d="M146.87,43.23h-8.44c-1.6,0-2.9-1.3-2.9-2.9h0c0-1.6,1.3-2.9,2.9-2.9h8.44c1.6,0,2.9,1.3,2.9,2.9h0c0,1.6-1.3,2.9-2.9,2.9Z"/></svg>