<?xml version="1.0" encoding="UTF-8"?><svg id="Layer_1" xmlns="http://www.w3.org/2000/svg" viewBox="0 0 160.72 160.91"><defs><style>.cls-1{fill:#fefefe;}.cls-1,.cls-2,.cls-3,.cls-4{stroke-width:0px;}.cls-2{fill:#429cd7;}.cls-3{fill:#107cbc;}.cls-4{fill:#2a8dcd;}</style></defs><rect class="cls-1" y=".2" width="160.72" height="160.72"/><path class="cls-2" d="M109.21,22.94v115.04l26.18-13.27c1.83-.93,2.99-2.81,2.99-4.86V40.56c0-2.08-1.19-3.98-3.06-4.9l-26.1-12.73Z"/><path class="cls-3" d="M109.21,22.94L23.6,96.38c-1.65,1.42-1.67,3.96-.05,5.41l8.94,7.95c1.28,1.14,3.2,1.22,4.57.17l72.16-55v-31.97Z"/><path class="cls-4" d="M23.83,63.81l85.38,74.16v-31.97L36.49,50.68c-1.39-1.06-3.34-.96-4.62.23l-8.12,7.57c-1.56,1.45-1.52,3.94.09,5.34Z"/></svg>