<?xml version="1.0" encoding="UTF-8"?><svg id="Layer_1" xmlns="http://www.w3.org/2000/svg" viewBox="0 0 160.72 160.91"><defs><style>.cls-1{fill:#fefefe;}.cls-1,.cls-2{stroke-width:0px;}.cls-2{fill:#21749a;}</style></defs><rect class="cls-2" y=".2" width="160.72" height="160.72"/><path class="cls-1" d="M15.9,85.49v-10.07c.35-.05.22-.34.24-.53.55-6.4,1.97-12.59,4.44-18.51,6.94-16.61,18.7-28.46,35.26-35.52,6.04-2.57,12.37-4.05,18.92-4.62.16-.01.45.11.44-.24h10.32c0,.35.28.23.44.24,6.21.53,12.21,1.94,17.99,4.23,22.76,9,38.42,29.98,40.62,54.37.01.16-.12.45.24.45v10.32c-.36,0-.22.29-.24.45-.24,2.76-.67,5.49-1.25,8.2-4.45,20.69-19.48,38.37-39.24,46.13-5.87,2.31-11.94,3.76-18.23,4.29-.16.01-.45-.12-.46.24h-10.07c0-.36-.3-.22-.46-.24-1.65-.15-3.29-.36-4.93-.62-8.81-1.43-17.03-4.49-24.44-9.45-17.37-11.61-27.22-27.82-29.35-48.66-.02-.16.12-.45-.24-.46ZM80.34,18.95c-33.97.06-61.57,27.69-61.48,61.55.09,33.96,27.67,61.52,61.51,61.46,33.97-.06,61.57-27.7,61.48-61.55-.09-33.96-27.67-61.52-61.51-61.45Z"/><path class="cls-1" d="M66.6,114.37c-.72-2.13-1.38-4.09-2.04-6.06-5.95-17.7-11.9-35.4-17.86-53.09-.2-.6-.08-.7.51-.73,1.82-.12,3.64-.29,5.45-.47,1.43-.14,2.3-1.13,2.19-2.48-.11-1.35-1.04-2.15-2.49-2.07-3.39.2-6.78.45-10.18.58-2.45.1-4.91.09-7.36.05-.17,0-.43.09-.5-.13-.04-.11.11-.3.2-.43,3.41-5.05,7.54-9.43,12.39-13.12,6.88-5.22,14.54-8.77,23.05-10.27,17.82-3.12,33.62,1.27,47.31,13.13.08.07.18.12.23.15-.1.29-.28.2-.4.19-4.75-.13-8.65,3.64-9.32,8.38-.35,2.52.23,4.87,1.22,7.16,1,2.3,2.37,4.39,3.66,6.52,1.7,2.79,3.15,5.68,4.04,8.84,1.38,4.9,1.15,9.78-.17,14.66-1.61,5.95-3.58,11.79-5.29,17.71-.99,3.42-2.04,6.83-3.07,10.24-.06.2-.12.39-.19.6-.26-.16-.26-.41-.33-.62-6.49-19.29-12.97-38.58-19.46-57.87-.24-.71-.24-.71.51-.77,1.82-.16,3.64-.3,5.45-.48,1.65-.16,2.57-1.59,2.03-3.11-.34-.97-1.12-1.49-2.26-1.43-1.74.09-3.48.22-5.21.33-5.57.36-11.15.48-16.73.12-2.45-.16-4.9-.32-7.35-.44-1.71-.08-2.81,1.37-2.33,3.02.26.9.95,1.42,2.01,1.52,1.75.16,3.51.34,5.26.48.37.03.54.17.66.51,2.75,7.56,5.51,15.12,8.28,22.68.1.29.13.54.03.85-3.93,11.77-7.86,23.54-11.78,35.31-.04.12-.09.23-.21.53Z"/><path class="cls-1" d="M81.3,85.48c.23.17.25.42.32.63,5.5,15.06,11,30.11,16.49,45.17.09.24.14.5.28.7.34.51.19.71-.37.9-7.4,2.47-14.99,3.35-22.76,2.64-3.35-.31-6.64-.94-9.88-1.81-.47-.13-.63-.26-.45-.8,5.4-15.65,10.78-31.3,16.17-46.95.05-.15.12-.3.19-.46Z"/><path class="cls-1" d="M56.05,130.07c-1.76-.75-3.4-1.72-5.01-2.75-11.63-7.43-19.54-17.72-23.62-30.9-1.97-6.35-2.65-12.87-2.23-19.51.4-6.3,1.84-12.34,4.31-18.14.07-.17.15-.34.23-.51.02-.04.05-.07.08-.1.24.09.23.33.3.51,8.62,23.6,17.23,47.2,25.84,70.8.06.18.12.36.18.54-.03.02-.05.05-.08.07Z"/><path class="cls-1" d="M108.29,128.03c.59-2.03,1.34-4.01,2.03-6.01,4.86-14.08,9.71-28.17,14.62-42.24,1.24-3.54,2.54-7.06,3.31-10.74.98-4.7,1.26-9.43.73-14.2-.02-.16,0-.33,0-.51.24.07.27.31.36.48,2.99,5.7,4.96,11.73,5.79,18.11,1.64,12.52-.61,24.31-6.93,35.26-4.78,8.29-11.35,14.86-19.55,19.79-.09.05-.19.09-.28.14-.02-.02-.05-.05-.07-.07Z"/></svg>