<?xml version="1.0" encoding="UTF-8"?><svg id="Layer_1" xmlns="http://www.w3.org/2000/svg" viewBox="0 0 160.72 160.91"><defs><style>.cls-1{fill:#f7f7f5;}.cls-2{fill:#231f20;}</style></defs><path class="cls-2" d="m160.72,0H0v160.72s0,0,0,0h160.72s0,0,0,0V0Zm-59.19,142.4c-3.25.63-4.4-1.36-4.4-3.08,0-2.1.08-9.01.08-17.59,0-5.98-2.04-9.89-4.34-11.87,14.24-1.59,29.18-7.01,29.18-31.63,0-7.01-2.47-12.73-6.57-17.22.66-1.62,2.85-8.13-.64-16.96,0,0-5.36-1.72-17.56,6.57-5.1-1.43-10.57-2.13-16-2.16-5.44.02-10.9.73-16,2.15-12.21-8.29-17.58-6.57-17.58-6.57-3.47,8.82-1.28,15.34-.62,16.97-4.09,4.48-6.58,10.21-6.58,17.21,0,24.56,14.92,30.06,29.11,31.68-1.83,1.61-3.48,4.43-4.06,8.58-3.64,1.64-12.9,4.47-18.61-5.33,0,0-3.37-6.15-9.78-6.61,0,0-6.24-.08-.43,3.9,0,0,4.19,1.97,7.09,9.38,0,0,3.76,12.47,21.53,8.6.03,5.34.09,9.38.09,10.9,0,1.7-1.17,3.68-4.36,3.09-25.41-8.49-43.72-32.52-43.72-60.84,0-35.41,28.62-64.12,63.91-64.12s63.92,28.71,63.92,64.12c0,28.32-18.3,52.34-43.66,60.83Z"/><path class="cls-1" d="m145.19,81.57c0,28.32-18.3,52.34-43.66,60.83-3.25.63-4.4-1.36-4.4-3.08,0-2.1.08-9.01.08-17.59,0-5.98-2.04-9.89-4.34-11.87,14.24-1.59,29.18-7.01,29.18-31.63,0-7.01-2.47-12.73-6.57-17.22.66-1.62,2.85-8.13-.64-16.96,0,0-5.36-1.72-17.56,6.57-5.1-1.43-10.57-2.13-16-2.16-5.44.02-10.9.73-16,2.15-12.21-8.29-17.58-6.57-17.58-6.57-3.47,8.82-1.28,15.34-.62,16.97-4.09,4.48-6.58,10.21-6.58,17.21,0,24.56,14.92,30.06,29.11,31.68-1.83,1.61-3.48,4.43-4.06,8.58-3.64,1.64-12.9,4.47-18.61-5.33,0,0-3.37-6.15-9.78-6.61,0,0-6.24-.08-.43,3.9,0,0,4.19,1.97,7.09,9.38,0,0,3.76,12.47,21.53,8.6.03,5.34.09,9.38.09,10.9,0,1.7-1.17,3.68-4.36,3.09-25.41-8.49-43.72-32.52-43.72-60.84,0-35.41,28.62-64.12,63.91-64.12s63.92,28.71,63.92,64.12Z"/></svg>