<?xml version="1.0" encoding="utf-8"?>
<!-- Generator: Adobe Illustrator 27.3.1, SVG Export Plug-In . SVG Version: 6.00 Build 0)  -->
<svg version="1.1" id="Layer_1" xmlns="http://www.w3.org/2000/svg" xmlns:xlink="http://www.w3.org/1999/xlink" x="0px" y="0px"
	 viewBox="0 0 160.7 161.1" style="enable-background:new 0 0 160.7 161.1;" xml:space="preserve">
<style type="text/css">
	.st0{opacity:0.5;}
	.st1{fill:#231F20;}
	.st2{fill:#0071AE;}
	.st3{fill:#F7F7F5;}
	.st4{fill:#390000;}
	.st5{fill:#FF9A00;}
	.st6{fill:#001834;}
	.st7{fill:#00A9FF;}
	.st8{fill:#49021F;}
	.st9{fill:#FF3366;}
</style>
<g>
	<g class="st0">
		<path class="st1" d="M137.1,161.1H23.7C10.6,161.1,0,150.5,0,137.5V24C0,11,10.6,0.4,23.7,0.4h113.4c13.1,0,23.7,10.6,23.7,23.7
			v113.4C160.7,150.5,150.1,161.1,137.1,161.1z"/>
	</g>
	<g>
		<rect class="st2" width="160.7" height="160.7"/>
		<g>
			<rect x="40.8" y="66.9" class="st3" width="19.1" height="53.5"/>
			<path class="st3" d="M69.9,66.9h14.8v7.4c0,0,2.3-7.5,15.9-7.5c11.3,0,19.3,4.4,19.3,16.4c0,6.7,0,37.1,0,37.1h-15.8
				c0,0,0.1-31.2,0.2-32.2c0.1-1-0.9-8.8-8.9-8.8c-8,0-10.6,5.8-10.6,10.1s0,30.8,0,30.8H69.9V66.9z"/>
			<circle class="st3" cx="50.4" cy="49.9" r="9.6"/>
		</g>
	</g>
</g>
</svg>
