<?xml version="1.0" encoding="UTF-8"?><svg id="Layer_1" xmlns="http://www.w3.org/2000/svg" viewBox="0 0 160.72 160.91"><defs><style>.cls-1{fill:#ff9a00;}.cls-2{fill:#300;}</style></defs><rect class="cls-2" x="0" width="160.72" height="160.91"/><ellipse class="cls-1" cx="120.58" cy="46.51" rx="9.94" ry="9.95"/><rect class="cls-1" x="111.87" y="62.63" width="17.15" height="61.72" rx="7.96" ry="7.96"/><path class="cls-1" d="m74.11,42.64h-20.54c.26,4.05-.88,7.57-.88,7.57l-24.97,72.07c-.29.84.33,1.72,1.22,1.72h1.06l13.21.04c.57,0,1.07-.36,1.24-.9l5.82-18.38,28.67.09,6.16,18.31c.18.53.67.88,1.23.88h15.68c.89,0,1.52-.88,1.22-1.73l-27.89-78.81c-.18-.52-.67-.86-1.22-.86Zm-19.48,46.45s8.91-27.47,9.62-32.23l10.03,32.23h-19.64Z"/></svg>