<?xml version="1.0" encoding="UTF-8"?><svg id="Layer_1" xmlns="http://www.w3.org/2000/svg" viewBox="0 0 160.72 160.91"><defs><style>.cls-1{fill:#49021f;}.cls-1,.cls-2{stroke-width:0px;}.cls-2{fill:#f36;}</style></defs><rect class="cls-1" y="-.2" width="160.72" height="161.11"/><rect class="cls-2" x="36.91" y="42.41" width="17.66" height="81.86" rx="8.83" ry="8.83"/><path class="cls-2" d="M106.15,36.14v24.77c-1-.07-2.02-.11-3.04-.11-23.5,0-37.07,14.58-37.07,32.56s11.75,32.56,37.07,32.56c7.64,0,14.75-2.03,20.65-5.52h0s.05-.05.05-.09V36.14c0-.74-.6-1.34-1.34-1.34h-14.98c-.74,0-1.34.6-1.34,1.34ZM106.15,109.49c-1.49.4-3.05.61-4.67.61-9.72,0-17.6-7.71-17.6-17.22s7.88-17.22,17.6-17.22c1.62,0,3.18.21,4.67.61v33.21Z"/></svg>