<?xml version="1.0" encoding="utf-8"?>
<!-- Generator: Adobe Illustrator 27.3.1, SVG Export Plug-In . SVG Version: 6.00 Build 0)  -->
<svg version="1.1" id="Layer_1" xmlns="http://www.w3.org/2000/svg" xmlns:xlink="http://www.w3.org/1999/xlink" x="0px" y="0px"
	 viewBox="0 0 160.7 160.9" style="enable-background:new 0 0 160.7 160.9;" xml:space="preserve">
<style type="text/css">
	.st0{opacity:0.5;}
	.st1{fill:#231F20;}
	.st2{fill:#0071AE;}
	.st3{fill:#F7F7F5;}
	.st4{fill:#390000;}
	.st5{fill:#FF9A00;}
	.st6{fill:#001834;}
	.st7{fill:#00A9FF;}
	.st8{fill:#49021F;}
	.st9{fill:#FF3366;}
</style>
<g>
	<rect y="-0.2" class="st8" width="160.7" height="161.1"/>
	<g>
		<path class="st9" d="M45.7,124.3L45.7,124.3c-4.9,0-8.8-4-8.8-8.8V51.2c0-4.9,4-8.8,8.8-8.8h0c4.9,0,8.8,4,8.8,8.8v64.2
			C54.6,120.3,50.6,124.3,45.7,124.3z"/>
		<path class="st9" d="M106.2,36.1v24.8c-1-0.1-2-0.1-3-0.1C79.6,60.8,66,75.4,66,93.4s11.8,32.6,37.1,32.6c7.6,0,14.7-2,20.6-5.5
			c0,0,0,0,0,0c0,0,0.1-0.1,0.1-0.1V36.1c0-0.7-0.6-1.3-1.3-1.3h-15C106.8,34.8,106.2,35.4,106.2,36.1z M106.2,109.5
			c-1.5,0.4-3.1,0.6-4.7,0.6c-9.7,0-17.6-7.7-17.6-17.2s7.9-17.2,17.6-17.2c1.6,0,3.2,0.2,4.7,0.6V109.5z"/>
	</g>
</g>
</svg>
