<?xml version="1.0" encoding="UTF-8"?><svg id="Layer_1" xmlns="http://www.w3.org/2000/svg" xmlns:xlink="http://www.w3.org/1999/xlink" viewBox="0 0 160.72 160.91"><defs><style>.cls-1{fill:#fefefe;}.cls-1,.cls-2{stroke-width:0px;}.cls-2{fill:url(#linear-gradient);}</style><linearGradient id="linear-gradient" x1="35.72" y1="35.7" x2="149.09" y2="149.62" gradientUnits="userSpaceOnUse"><stop offset="0" stop-color="#02c0cb"/><stop offset=".24" stop-color="#2194d4"/><stop offset=".6" stop-color="#4d59e2"/><stop offset=".86" stop-color="#6834ea"/><stop offset="1" stop-color="#7326ee"/></linearGradient></defs><rect class="cls-2" y=".2" width="160.72" height="160.72"/><path class="cls-1" d="M140.13,87.94c-.15-.27-.36-.46-.71-.44-.35.02-.39.29-.46.52-.27,1-.77,1.9-1.25,2.8-.47.89-1.04,1.74-1.91,2.31-1.12.73-1.97.33-2.08-.99-.2-2.37.34-4.65.89-6.92.35-1.95.93-3.83,1.46-5.73.24-.87.53-1.73.77-2.6.31-1.12.08-1.68-.84-2.14-2.51-.4-4.03.98-5.28,3.04-.37-1.43-1.12-2.46-2.44-2.98-.29-.08-.59-.15-.88-.23-.09,0-.17-.01-.26-.02-2.12-.18-3.9.68-5.49,1.94-.83.66-1.48,1.55-2.15,2.4-.86,1.09-1.86,2.01-3.16,2.57-.69.3-1.4.45-2.15.42-.46-.02-.64-.11-.42-.65.81-2.02,1.45-4.09,1.51-6.29.04-1.41-.21-2.72-1.26-3.76-.91-.9-2.05-.9-3.16-.68-2.43.48-3.47,2.31-3.96,4.5-.55,2.5-.05,4.81,1.62,6.81.49.43.96.89,1.55,1.18.25.13.24.27.13.51-1.29,2.76-2.74,5.42-4.76,7.72-.41.46-.85,1.11-1.54.96-.73-.16-.79-.97-.97-1.58-.39-1.37-.52-2.78-.62-4.18-.04-.61-.24-1.2-.12-1.82-.09-2.91-.22-5.82.21-8.71.13-.85-.03-1.02-.98-1.31-.54.02-1.1-.03-1.62.07-1.61.3-2.48,1.42-2.99,2.88-.52,1.65-.35,3.39-.71,5.06-.64,3.05-1.81,5.87-3.86,8.26-.39.45-.83.84-1.35,1.13-1.18.65-1.92.24-2.01-1.09-.06-.93.03-1.85.18-2.77.4-2.34,1.16-4.61,1.52-6.96.08-.54.14-1.09.21-1.63,0-.97-.05-1.93-.38-2.85-.54-1.49-1.59-2.11-3.06-2.1-1.32,0-2.42.62-3.41,1.4-1.92,1.51-3.37,3.44-4.68,5.48-.36.56-.71,1.13-1.14,1.84.21-1.22.41-2.28.57-3.35.14-.94.15-1.89.05-2.84-.09-.84-.42-1.58-1.13-2.1-1.11-.49-2.17-.3-3.21.21-.48.24-.71.62-.7,1.16,0,.5-.02,1-.04,1.51-.25,2.53-.85,4.97-1.76,7.35-.75,2.2-1.71,4.3-3.12,6.16-.55.72-1.18,1.38-2.05,1.74-1.03.42-1.64.08-1.79-1.02-.24-1.7.16-3.35.44-5.01.04-.25.12-.49.18-.73.37-2.19,1.02-4.32,1.57-6.46.05-.18.11-.35.17-.52.2-.69.38-1.38.6-2.06.77-2.32-.48-2.81-2.4-2.54-1.5.21-2.4,1.24-3.2,2.39-.12.17-.23.35-.36.56-.06-.1-.12-.16-.14-.24-.65-2.43-2.8-3.26-5.13-2.83-2.06.39-3.62,1.64-5.02,3.12-.86.91-1.56,1.93-2.19,3.01-1.34,3.1-2.4,6.34-4.44,9.1-1.7,2.31-3.64,4.34-6.39,5.37-2.93,1.1-5.79,1.02-8.39-.92-1.27-.95-2.08-2.26-2.66-3.7-.75-1.86-1.06-3.8-1.13-5.8-.12-2.1.04-4.17.58-6.21-.01-.04,0-.08.02-.12,0-.08,0-.17,0-.26-.02-.08.02-.13.09-.17.03-.12.05-.24.08-.36,1.41-4.95,3.95-9.14,8.26-12.12,1.13-.78,2.38-1.35,3.76-1.56,3.4-.52,5.43,1.38,5.22,4.84-.1,1.72-.75,3.22-1.55,4.69-.3.57-.52,1.16-.03,1.75.58.28,1.16.03,1.75-.01.09-.03.17-.06.26-.1.13-.05.25-.1.38-.15.08-.04.17-.08.25-.13.32-.22.64-.43.95-.65,1.26-1.15,2.12-2.53,2.48-4.21.37-1.71.24-3.36-.55-4.95-1.04-1.72-2.57-2.79-4.46-3.38-1.24-.39-2.5-.56-3.79-.57-2.64-.03-5.13.6-7.5,1.74-3.37,1.76-6.1,4.22-8.27,7.35-1.22,1.77-2.08,3.71-2.88,5.68-.27.65-.37,1.36-.55,2.04-.43,2.1-.71,4.21-.63,6.36.02.5,0,1,0,1.5,0,.16,0,.33,0,.49.04.05.07.1.1.14.01.13.02.25.03.38.03.17.06.34.08.51.51,3.32,1.67,6.35,3.98,8.86,1.7,1.5,3.62,2.53,5.84,3.1,1.1.28,2.23.42,3.31.4,1.66-.03,3.33-.37,4.89-1.07,3.74-1.68,6.4-4.5,8.45-7.97.13-.21.25-.43.45-.77.14.95.23,1.78.48,2.58.39,1.25,1.01,2.34,2.07,3.17,1.6,1.26,4.42.98,6.08-.06,1.22-.76,2.16-1.79,2.95-2.98.09-.14.18-.27.32-.48.59,1.97,1.29,3.76,3.53,4.25.17.03.34.07.51.1.09,0,.18.01.27.02.5-.04,1-.09,1.5-.13.08-.02.16-.03.24-.05.22-.07.43-.14.65-.21,1.84-.81,3.12-2.25,4.3-3.81.07-.09.14-.18.2-.26.08.08.06.17.04.27.02.34.03.67.04,1.01.02.13.05.26.07.39.02.12.03.25.05.37.03.09.06.17.08.26.15.37.31.74.46,1.12.92,1.3,2.34,1.09,3.44.71.7-.24.67-.93.93-1.45.28-1.43.78-2.8,1.3-4.15,1.37-3.53,3.09-6.87,5.55-9.78.37-.44.77-.84,1.24-1.16.29-.2.6-.45.98-.27.42.2.39.64.38,1-.03,1.14-.27,2.25-.51,3.37-.42,2-.92,3.98-1.13,6.01-.13,1.17.02,2.31.2,3.45.92,3.36,4.19,3.84,6.34,2.69,1.79-.95,3.03-2.46,4.12-4.1.97-1.46,1.72-3.04,2.39-4.66.06-.15.13-.29.25-.55.33,2.26.7,4.37,1.44,6.39.41,1.12.93,2.16,1.8,3.01.68.62,1.46.59,2.26.32,1.15-.4,2.06-1.18,2.96-1.97.14-.13.28-.25.42-.37,2.79-2.89,4.98-6.19,6.77-9.76.1-.19.17-.36.46-.33,1.58.18,3.05-.18,4.53-1.11-.94,2.52-1.31,4.99-1.12,7.54.12.87.25,1.74.55,2.58.8,2.29,2.4,3.54,4.81,3.77.12-.01.24-.02.36-.03.1-.17.25-.1.39-.11,2.65-.43,4.35-2.14,5.73-4.35.16.48.27.88.43,1.26.96,2.43,2.64,3.41,5.19,2.97,3.17-.55,6.03-3.54,6.49-6.77.08-.56.12-1.14-.17-1.67ZM60.83,82.3c-.12,1.75-.56,3.39-1.07,5.04-.03.1-.08.19-.13.29-.54,1.58-1.22,3.09-2.31,4.38-.24.29-.53.55-.83.77-1.1.77-2.33.44-2.91-.77-.46-.97-.56-2.02-.5-3.09.01-.21.02-.42.03-.64.02-.18.05-.36.07-.53.26-2.5,1.04-4.82,2.26-7.01.45-.81,1-1.56,1.69-2.18.2-.18.42-.36.65-.5,1.38-.83,2.49-.41,2.89,1.14.26,1.01.23,2.04.16,3.09ZM112.02,78.34c-.15.67-.35,1.33-.56,2.11-1.11-1.43-1.39-2.95-1.34-4.55.03-.72.15-1.43.49-2.07.22-.41.48-.84,1.05-.75.59.1.74.58.79,1.08.14,1.42-.12,2.81-.43,4.18ZM129.67,82.18c-.32,3.32-1.24,6.45-3.08,9.26-.37.57-.83,1.07-1.42,1.42-1.01.61-2.07.34-2.65-.69-.46-.81-.6-1.7-.62-2.62-.12-2.13.42-4.14,1.14-6.1.58-1.61,1.34-3.14,2.48-4.45.41-.47.87-.86,1.44-1.12,1.14-.52,2.05-.15,2.46,1.04.37,1.06.35,2.15.26,3.25Z"/></svg>