<?xml version="1.0" encoding="utf-8"?>
<!-- Generator: Adobe Illustrator 27.3.1, SVG Export Plug-In . SVG Version: 6.00 Build 0)  -->
<svg version="1.1" id="Layer_1" xmlns="http://www.w3.org/2000/svg" xmlns:xlink="http://www.w3.org/1999/xlink" x="0px" y="0px"
	 viewBox="0 0 160.7 160.9" style="enable-background:new 0 0 160.7 160.9;" xml:space="preserve">
<style type="text/css">
	.st0{opacity:0.5;}
	.st1{fill:#231F20;}
	.st2{fill:#0071AE;}
	.st3{fill:#F7F7F5;}
	.st4{fill:#390000;}
	.st5{fill:#FF9A00;}
	.st6{fill:#001834;}
	.st7{fill:#00A9FF;}
	.st8{fill:#49021F;}
	.st9{fill:#FF3366;}
</style>
<g>
	<rect y="-0.2" class="st6" width="160.7" height="161.1"/>
	<g>
		<path class="st7" d="M29.9,115.8V43.9c0-0.5,0.2-0.8,0.7-0.8c1.2,0,2.3,0,3.9-0.1c1.7,0,3.5-0.1,5.3-0.1c1.9,0,3.9-0.1,6.1-0.1
			c2.2,0,4.2-0.1,6.3-0.1c4.9-0.1,9.8,0.6,14.4,2.2c3.6,1.2,6.7,3.2,9.4,5.7c2.3,2.3,4.1,4.9,5.1,7.9c1.1,2.9,1.6,5.9,1.6,9.1
			c0,6-1.4,11-4.1,14.9c-2.8,3.9-6.7,6.9-11.3,8.5c-5,1.7-10.4,2.6-15.8,2.4c-1.7,0-2.9,0-3.5-0.1c-0.7,0-1.7-0.1-3.1-0.1v22.5
			c0.1,0.5-0.3,1-0.8,1c-0.1,0-0.2,0-0.3,0H30.7C30.1,116.7,29.9,116.4,29.9,115.8L29.9,115.8z M45.1,56.6v23.5
			c1,0.1,1.9,0.1,2.7,0.1h3.8c4.8,0,10.6-1.1,13.8-5c2.9-3.5,2.9-9.7,0.5-13.4c-2.6-4.2-8.5-5.5-13.1-5.3c-1.8,0-3.4,0-4.7,0.1
			C46.6,56.5,45.6,56.6,45.1,56.6L45.1,56.6z M45.1,56.6"/>
		<path class="st7" d="M126.4,75.8c-2.1-1.1-4.3-1.9-6.7-2.4c-2.6-0.6-5.2-0.9-7.8-0.9c-1.4,0-2.9,0.1-4.2,0.5
			c-0.9,0.2-1.7,0.7-2.2,1.4c-0.4,0.6-0.6,1.3-0.6,1.9c0,0.7,0.3,1.3,0.7,1.8c0.7,0.8,1.5,1.4,2.4,1.9c1.6,0.9,3.3,1.7,4.9,2.3
			c3.8,1.3,7.4,3,10.8,5.1c2.3,1.5,4.1,3.5,5.5,5.8c1.1,2.3,1.7,4.7,1.7,7.2c0.1,3.3-0.9,6.5-2.7,9.3c-2,2.8-4.6,4.9-7.8,6.2
			c-4.1,1.6-8.3,2.4-12.6,2.3c-3.2,0-6.4-0.3-9.5-0.9c-2.5-0.5-4.8-1.2-7.1-2.3c-0.5-0.3-0.8-0.8-0.8-1.4v-12.1
			c0-0.2,0.1-0.5,0.3-0.6c0.2-0.1,0.5-0.1,0.6,0.1c2.7,1.6,5.6,2.8,8.7,3.5c2.7,0.7,5.4,1,8.2,1.1c2,0.1,4-0.2,5.8-1
			c1.2-0.5,1.9-1.7,1.9-3c-0.1-1.2-0.7-2.2-1.7-2.9c-2.2-1.4-4.4-2.5-6.9-3.3c-3.6-1.2-6.9-3-10-5c-2.2-1.6-4-3.6-5.3-5.9
			c-1.1-2.2-1.7-4.6-1.7-7.1c0-3,0.8-5.9,2.4-8.5c1.8-2.8,4.3-5,7.3-6.4c3.8-1.8,8.1-2.7,12.3-2.5c2.9,0,5.8,0.2,8.7,0.6
			c2.1,0.3,4.1,0.8,6,1.7c0.3,0.1,0.6,0.3,0.7,0.6c0.1,0.3,0.1,0.6,0.1,0.9v11.4c0,0.3-0.1,0.5-0.3,0.7
			C127,75.9,126.7,75.9,126.4,75.8L126.4,75.8z M126.4,75.8"/>
	</g>
</g>
</svg>
