<?xml version="1.0" encoding="utf-8"?>
<!-- Generator: Adobe Illustrator 27.9.0, SVG Export Plug-In . SVG Version: 6.00 Build 0)  -->
<svg version="1.1" id="Layer_1" xmlns="http://www.w3.org/2000/svg" xmlns:xlink="http://www.w3.org/1999/xlink" x="0px" y="0px"
	 viewBox="0 0 160.7 160.9" style="enable-background:new 0 0 160.7 160.9;" xml:space="preserve">
<style type="text/css">
	.st0{fill:#21749A;}
	.st1{opacity:0.5;}
	.st2{fill:#231F20;}
	.st3{fill:#0071AE;}
	.st4{fill:#F7F7F5;}
	.st5{fill:#390000;}
	.st6{fill:#FF9A00;}
	.st7{fill:#001834;}
	.st8{fill:#00A9FF;}
	.st9{fill:#49021F;}
	.st10{fill:#FF3366;}
	.st11{fill:url(#SVGID_1_);}
	.st12{fill:#FEFEFE;}
</style>
<linearGradient id="SVGID_1_" gradientUnits="userSpaceOnUse" x1="35.7179" y1="35.6957" x2="149.0868" y2="149.6185">
	<stop  offset="0" style="stop-color:#02C0CB"/>
	<stop  offset="0.2373" style="stop-color:#2295D5"/>
	<stop  offset="0.5958" style="stop-color:#4D59E2"/>
	<stop  offset="0.8604" style="stop-color:#6934EB"/>
	<stop  offset="1" style="stop-color:#7326EE"/>
</linearGradient>
<rect y="0.2" class="st11" width="160.7" height="160.7"/>
<path class="st12" d="M140.1,87.9c-0.2-0.3-0.4-0.5-0.7-0.4c-0.3,0-0.4,0.3-0.5,0.5c-0.3,1-0.8,1.9-1.3,2.8c-0.5,0.9-1,1.7-1.9,2.3
	c-1.1,0.7-2,0.3-2.1-1c-0.2-2.4,0.3-4.6,0.9-6.9c0.3-1.9,0.9-3.8,1.5-5.7c0.2-0.9,0.5-1.7,0.8-2.6c0.3-1.1,0.1-1.7-0.8-2.1
	c-2.5-0.4-4,1-5.3,3c-0.4-1.4-1.1-2.5-2.4-3c-0.3-0.1-0.6-0.2-0.9-0.2c-0.1,0-0.2,0-0.3,0c-2.1-0.2-3.9,0.7-5.5,1.9
	c-0.8,0.7-1.5,1.5-2.1,2.4c-0.9,1.1-1.9,2-3.2,2.6c-0.7,0.3-1.4,0.4-2.2,0.4c-0.5,0-0.6-0.1-0.4-0.7c0.8-2,1.4-4.1,1.5-6.3
	c0-1.4-0.2-2.7-1.3-3.8c-0.9-0.9-2-0.9-3.2-0.7c-2.4,0.5-3.5,2.3-4,4.5c-0.6,2.5-0.1,4.8,1.6,6.8c0.5,0.4,1,0.9,1.6,1.2
	c0.3,0.1,0.2,0.3,0.1,0.5c-1.3,2.8-2.7,5.4-4.8,7.7c-0.4,0.5-0.8,1.1-1.5,1c-0.7-0.2-0.8-1-1-1.6c-0.4-1.4-0.5-2.8-0.6-4.2
	c0-0.6-0.2-1.2-0.1-1.8c-0.1-2.9-0.2-5.8,0.2-8.7c0.1-0.8,0-1-1-1.3c-0.5,0-1.1,0-1.6,0.1c-1.6,0.3-2.5,1.4-3,2.9
	c-0.5,1.6-0.4,3.4-0.7,5.1c-0.6,3.1-1.8,5.9-3.9,8.3c-0.4,0.5-0.8,0.8-1.4,1.1c-1.2,0.6-1.9,0.2-2-1.1c-0.1-0.9,0-1.9,0.2-2.8
	c0.4-2.3,1.2-4.6,1.5-7c0.1-0.5,0.1-1.1,0.2-1.6c0-1-0.1-1.9-0.4-2.9c-0.5-1.5-1.6-2.1-3.1-2.1c-1.3,0-2.4,0.6-3.4,1.4
	c-1.9,1.5-3.4,3.4-4.7,5.5c-0.4,0.6-0.7,1.1-1.1,1.8c0.2-1.2,0.4-2.3,0.6-3.3c0.1-0.9,0.1-1.9,0-2.8c-0.1-0.8-0.4-1.6-1.1-2.1
	c-1.1-0.5-2.2-0.3-3.2,0.2c-0.5,0.2-0.7,0.6-0.7,1.2c0,0.5,0,1,0,1.5c-0.3,2.5-0.9,5-1.8,7.3c-0.7,2.2-1.7,4.3-3.1,6.2
	c-0.6,0.7-1.2,1.4-2,1.7c-1,0.4-1.6,0.1-1.8-1c-0.2-1.7,0.2-3.3,0.4-5c0-0.2,0.1-0.5,0.2-0.7c0.4-2.2,1-4.3,1.6-6.5
	c0-0.2,0.1-0.3,0.2-0.5c0.2-0.7,0.4-1.4,0.6-2.1c0.8-2.3-0.5-2.8-2.4-2.5C64,75,63.1,76,62.3,77.2c-0.1,0.2-0.2,0.4-0.4,0.6
	c-0.1-0.1-0.1-0.2-0.1-0.2c-0.7-2.4-2.8-3.3-5.1-2.8c-2.1,0.4-3.6,1.6-5,3.1c-0.9,0.9-1.6,1.9-2.2,3c-1.3,3.1-2.4,6.3-4.4,9.1
	c-1.7,2.3-3.6,4.3-6.4,5.4c-2.9,1.1-5.8,1-8.4-0.9c-1.3-0.9-2.1-2.3-2.7-3.7c-0.7-1.9-1.1-3.8-1.1-5.8c-0.1-2.1,0-4.2,0.6-6.2
	c0,0,0-0.1,0-0.1c0-0.1,0-0.2,0-0.3c0-0.1,0-0.1,0.1-0.2c0-0.1,0.1-0.2,0.1-0.4c1.4-5,4-9.1,8.3-12.1c1.1-0.8,2.4-1.3,3.8-1.6
	c3.4-0.5,5.4,1.4,5.2,4.8c-0.1,1.7-0.8,3.2-1.5,4.7c-0.3,0.6-0.5,1.2,0,1.7c0.6,0.3,1.2,0,1.7,0c0.1,0,0.2-0.1,0.3-0.1
	c0.1,0,0.3-0.1,0.4-0.1c0.1,0,0.2-0.1,0.3-0.1c0.3-0.2,0.6-0.4,1-0.7c1.3-1.2,2.1-2.5,2.5-4.2c0.4-1.7,0.2-3.4-0.5-4.9
	c-1-1.7-2.6-2.8-4.5-3.4c-1.2-0.4-2.5-0.6-3.8-0.6c-2.6,0-5.1,0.6-7.5,1.7c-3.4,1.8-6.1,4.2-8.3,7.4C23.2,72,22.4,74,21.6,76
	c-0.3,0.6-0.4,1.4-0.6,2c-0.4,2.1-0.7,4.2-0.6,6.4c0,0.5,0,1,0,1.5c0,0.2,0,0.3,0,0.5c0,0,0.1,0.1,0.1,0.1c0,0.1,0,0.3,0,0.4
	c0,0.2,0.1,0.3,0.1,0.5c0.5,3.3,1.7,6.3,4,8.9c1.7,1.5,3.6,2.5,5.8,3.1c1.1,0.3,2.2,0.4,3.3,0.4c1.7,0,3.3-0.4,4.9-1.1
	c3.7-1.7,6.4-4.5,8.5-8c0.1-0.2,0.2-0.4,0.4-0.8c0.1,1,0.2,1.8,0.5,2.6c0.4,1.3,1,2.3,2.1,3.2c1.6,1.3,4.4,1,6.1-0.1
	c1.2-0.8,2.2-1.8,2.9-3c0.1-0.1,0.2-0.3,0.3-0.5c0.6,2,1.3,3.8,3.5,4.2c0.2,0,0.3,0.1,0.5,0.1c0.1,0,0.2,0,0.3,0
	c0.5,0,1-0.1,1.5-0.1c0.1,0,0.2,0,0.2,0c0.2-0.1,0.4-0.1,0.6-0.2c1.8-0.8,3.1-2.3,4.3-3.8c0.1-0.1,0.1-0.2,0.2-0.3
	c0.1,0.1,0.1,0.2,0,0.3c0,0.3,0,0.7,0,1c0,0.1,0,0.3,0.1,0.4c0,0.1,0,0.2,0,0.4c0,0.1,0.1,0.2,0.1,0.3c0.2,0.4,0.3,0.7,0.5,1.1
	c0.9,1.3,2.3,1.1,3.4,0.7c0.7-0.2,0.7-0.9,0.9-1.4c0.3-1.4,0.8-2.8,1.3-4.1c1.4-3.5,3.1-6.9,5.5-9.8c0.4-0.4,0.8-0.8,1.2-1.2
	c0.3-0.2,0.6-0.5,1-0.3c0.4,0.2,0.4,0.6,0.4,1c0,1.1-0.3,2.3-0.5,3.4c-0.4,2-0.9,4-1.1,6c-0.1,1.2,0,2.3,0.2,3.5
	c0.9,3.4,4.2,3.8,6.3,2.7c1.8-1,3-2.5,4.1-4.1c1-1.5,1.7-3,2.4-4.7c0.1-0.1,0.1-0.3,0.3-0.6c0.3,2.3,0.7,4.4,1.4,6.4
	c0.4,1.1,0.9,2.2,1.8,3c0.7,0.6,1.5,0.6,2.3,0.3c1.2-0.4,2.1-1.2,3-2c0.1-0.1,0.3-0.2,0.4-0.4c2.8-2.9,5-6.2,6.8-9.8
	c0.1-0.2,0.2-0.4,0.5-0.3c1.6,0.2,3.1-0.2,4.5-1.1c-0.9,2.5-1.3,5-1.1,7.5c0.1,0.9,0.3,1.7,0.5,2.6c0.8,2.3,2.4,3.5,4.8,3.8
	c0.1,0,0.2,0,0.4,0c0.1-0.2,0.3-0.1,0.4-0.1c2.6-0.4,4.3-2.1,5.7-4.3c0.2,0.5,0.3,0.9,0.4,1.3c1,2.4,2.6,3.4,5.2,3
	c3.2-0.5,6-3.5,6.5-6.8C140.4,89,140.4,88.5,140.1,87.9z M60.8,82.3c-0.1,1.7-0.6,3.4-1.1,5c0,0.1-0.1,0.2-0.1,0.3
	c-0.5,1.6-1.2,3.1-2.3,4.4c-0.2,0.3-0.5,0.6-0.8,0.8c-1.1,0.8-2.3,0.4-2.9-0.8c-0.5-1-0.6-2-0.5-3.1c0-0.2,0-0.4,0-0.6
	c0-0.2,0-0.4,0.1-0.5c0.3-2.5,1-4.8,2.3-7c0.5-0.8,1-1.6,1.7-2.2c0.2-0.2,0.4-0.4,0.7-0.5c1.4-0.8,2.5-0.4,2.9,1.1
	C60.9,80.2,60.9,81.2,60.8,82.3z M112,78.3c-0.2,0.7-0.3,1.3-0.6,2.1c-1.1-1.4-1.4-2.9-1.3-4.6c0-0.7,0.2-1.4,0.5-2.1
	c0.2-0.4,0.5-0.8,1-0.7c0.6,0.1,0.7,0.6,0.8,1.1C112.6,75.6,112.3,77,112,78.3z M129.7,82.2c-0.3,3.3-1.2,6.4-3.1,9.3
	c-0.4,0.6-0.8,1.1-1.4,1.4c-1,0.6-2.1,0.3-2.7-0.7c-0.5-0.8-0.6-1.7-0.6-2.6c-0.1-2.1,0.4-4.1,1.1-6.1c0.6-1.6,1.3-3.1,2.5-4.4
	c0.4-0.5,0.9-0.9,1.4-1.1c1.1-0.5,2-0.1,2.5,1C129.8,80,129.8,81.1,129.7,82.2z"/>
</svg>
