<?xml version="1.0" encoding="utf-8"?>
<!-- Generator: Adobe Illustrator 27.2.0, SVG Export Plug-In . SVG Version: 6.00 Build 0)  -->
<svg version="1.1" id="Layer_1" xmlns="http://www.w3.org/2000/svg" xmlns:xlink="http://www.w3.org/1999/xlink" x="0px" y="0px"
	 viewBox="0 0 13.2 13.2" style="enable-background:new 0 0 13.2 13.2;" xml:space="preserve">
<style type="text/css">
	.st0{fill:#405C40;}
	.st1{clip-path:url(#SVGID_00000013913533245053849290000002743871598241279144_);fill:#405C40;}
	.st2{clip-path:url(#SVGID_00000114769470787382627690000008889126212684922781_);fill:#405C40;}
	.st3{clip-path:url(#SVGID_00000049910536757283009430000008761986057007009693_);fill:#405C40;}
	.st4{clip-path:url(#SVGID_00000032647449845323291600000003260975664623061130_);fill:#405C40;}
	.st5{clip-path:url(#SVGID_00000124137435873327305360000011282481558431104898_);fill:#405C40;}
	.st6{fill:#CD2D40;}
	.st7{fill:#0D468F;}
	.st8{fill:#FFFFFF;}
</style>
<g>
	<g>
		<defs>
			<rect id="SVGID_00000173144674177805724120000004005293572484619658_" width="13.2" height="13.2"/>
		</defs>
		<clipPath id="SVGID_00000127723087397035605660000012849649748375679898_">
			<use xlink:href="#SVGID_00000173144674177805724120000004005293572484619658_"  style="overflow:visible;"/>
		</clipPath>
		<path style="clip-path:url(#SVGID_00000127723087397035605660000012849649748375679898_);fill:#405C40;" d="M4.9,4.7
			c0.1-0.1,0.3-0.4,0.4-0.6c0.3-0.8,0.2-1,0.2-1C5.3,2.6,4.8,2,4.2,1.4C3.6,0.7,3,0.3,2.5,0c0,0-0.8-0.2-1.3,0.3c0,0,0,0,0,0
			c0,0,0,0,0,0l0,0C1.1,0.5,1,0.6,0.9,0.6L4.9,4.7z"/>
	</g>
	<g>
		<defs>
			<rect id="SVGID_00000111181791736878479760000002527787398938692267_" width="13.2" height="13.2"/>
		</defs>
		<clipPath id="SVGID_00000165929856169846645780000010084383048935738039_">
			<use xlink:href="#SVGID_00000111181791736878479760000002527787398938692267_"  style="overflow:visible;"/>
		</clipPath>
		<path style="clip-path:url(#SVGID_00000165929856169846645780000010084383048935738039_);fill:#405C40;" d="M13.1,10.7
			c-0.2-0.5-0.7-1.1-1.3-1.7c-0.6-0.6-1.3-1.1-1.7-1.3c0,0-0.2-0.2-1,0.2C8.9,7.9,8.6,8.1,8.5,8.2l4,4c0.1-0.1,0.2-0.1,0.2-0.2h0
			c0,0,0,0,0,0c0,0,0,0,0,0C13.3,11.4,13.1,10.7,13.1,10.7"/>
	</g>
	<g>
		<defs>
			<rect id="SVGID_00000119830760056400389140000005693794182178638260_" width="13.2" height="13.2"/>
		</defs>
		<clipPath id="SVGID_00000008870618763278826970000002545076899520745884_">
			<use xlink:href="#SVGID_00000119830760056400389140000005693794182178638260_"  style="overflow:visible;"/>
		</clipPath>
		<path style="clip-path:url(#SVGID_00000008870618763278826970000002545076899520745884_);fill:#405C40;" d="M8.1,8.8
			C8,9,7.8,9,7.5,9C6.8,9,5.7,8.4,5.2,7.9C4.6,7.3,3.7,5.6,4.4,5.1c0,0,0.1,0,0.1-0.1L0.6,1.1C0,2,0,2.7,0,2.7S-0.1,6,3.6,9.6
			c3.5,3.5,6.6,3.6,6.9,3.6h0h0c0.1,0,0.8,0,1.6-0.6L8.2,8.7C8.1,8.7,8.1,8.8,8.1,8.8"/>
	</g>
</g>
</svg>
