<?xml version="1.0" encoding="utf-8"?>
<!-- Generator: Adobe Illustrator 27.2.0, SVG Export Plug-In . SVG Version: 6.00 Build 0)  -->
<svg version="1.1" id="Layer_1" xmlns="http://www.w3.org/2000/svg" xmlns:xlink="http://www.w3.org/1999/xlink" x="0px" y="0px"
	 viewBox="0 0 17.1 11.4" style="enable-background:new 0 0 17.1 11.4;" xml:space="preserve">
<style type="text/css">
	.st0{fill:#405C40;}
	.st1{clip-path:url(#SVGID_00000168096612763753860890000009103554969465793703_);fill:#405C40;}
	.st2{clip-path:url(#SVGID_00000008126370372805283370000004135255146570260370_);fill:#405C40;}
	.st3{clip-path:url(#SVGID_00000062170463280606669480000004911432990899661442_);fill:#405C40;}
	.st4{clip-path:url(#SVGID_00000067930267368904393620000003634076128780307134_);fill:#405C40;}
	.st5{clip-path:url(#SVGID_00000141457509320119527990000005021215492325113768_);fill:#405C40;}
	.st6{fill:#CD2D40;}
	.st7{fill:#0D468F;}
	.st8{fill:#FFFFFF;}
</style>
<g>
	<rect class="st8" width="7.6" height="4.7"/>
	<rect y="6.7" class="st8" width="7.6" height="4.7"/>
	<polygon class="st6" points="17.1,4.7 17.1,6.7 9.5,6.7 9.5,11.4 7.6,11.4 7.6,6.7 0,6.7 0,4.7 7.6,4.7 7.6,0 9.5,0 9.5,4.7 	"/>
	<polygon class="st7" points="0,4 4,4 0,1.3 	"/>
	<polygon class="st7" points="0,7.4 0,10.1 4,7.4 	"/>
	<polygon class="st7" points="2,11.4 6.8,11.4 6.8,8.2 	"/>
	<polygon class="st7" points="2,0 6.8,0 6.8,3.3 	"/>
	<polygon class="st6" points="0,0.9 4.6,4 6,4 0,0 	"/>
	<polygon class="st6" points="6,7.4 0,11.4 1.3,11.4 6.8,7.7 6.8,7.4 	"/>
	<rect x="9.5" class="st8" width="7.5" height="4.7"/>
	<rect x="9.5" y="6.7" class="st8" width="7.5" height="4.7"/>
	<polygon class="st7" points="13.1,7.4 17.1,10.1 17.1,7.4 	"/>
	<polygon class="st7" points="13.1,4 17.1,4 17.1,1.3 	"/>
	<polygon class="st7" points="15.1,0 10.3,0 10.3,3.3 	"/>
	<polygon class="st7" points="15.1,11.4 10.3,11.4 10.3,8.2 	"/>
	<polygon class="st6" points="11.1,7.4 17.1,11.4 17.1,10.5 12.5,7.4 	"/>
	<polygon class="st6" points="15.8,0 10.3,3.7 10.3,4 11.1,4 17.1,0 	"/>
</g>
</svg>
