<?xml version="1.0" encoding="utf-8"?>
<!-- Generator: Adobe Illustrator 27.2.0, SVG Export Plug-In . SVG Version: 6.00 Build 0)  -->
<svg version="1.1" id="Layer_1" xmlns="http://www.w3.org/2000/svg" xmlns:xlink="http://www.w3.org/1999/xlink" x="0px" y="0px"
	 viewBox="0 0 13.2 9.6" style="enable-background:new 0 0 13.2 9.6;" xml:space="preserve">
<style type="text/css">
	.st0{fill:#405C40;}
	.st1{clip-path:url(#SVGID_00000088850436949913096170000010236685313307454391_);fill:#405C40;}
	.st2{clip-path:url(#SVGID_00000093135597615521006940000011373033285262258620_);fill:#405C40;}
	.st3{clip-path:url(#SVGID_00000086692276629003258510000016973047777610712723_);fill:#405C40;}
	.st4{clip-path:url(#SVGID_00000094600539765541563490000002840336169577677745_);fill:#405C40;}
	.st5{clip-path:url(#SVGID_00000020379507963720957520000011216816529517761723_);fill:#405C40;}
	.st6{fill:#CD2D40;}
	.st7{fill:#0D468F;}
	.st8{fill:#FFFFFF;}
</style>
<polygon class="st0" points="0,8.5 3.9,5.3 0,2 "/>
<g>
	<defs>
		<rect id="SVGID_1_" width="13.2" height="9.6"/>
	</defs>
	<clipPath id="SVGID_00000034810483803103852210000006888111916674212489_">
		<use xlink:href="#SVGID_1_"  style="overflow:visible;"/>
	</clipPath>
	<path style="clip-path:url(#SVGID_00000034810483803103852210000006888111916674212489_);fill:#405C40;" d="M12.1,0H1
		C0.5,0,0.1,0.4,0,0.9l5.2,4.3L6,5.9c0.3,0.2,0.8,0.2,1.1,0L8,5.1l5.1-4.3C13.1,0.4,12.6,0,12.1,0"/>
</g>
<polygon class="st0" points="9.2,5.3 13.2,8.5 13.2,2 "/>
<g>
	<defs>
		<rect id="SVGID_00000062193742765467042120000007502595289725668738_" width="13.2" height="9.6"/>
	</defs>
	<clipPath id="SVGID_00000077317109741372286890000002109349422130240668_">
		<use xlink:href="#SVGID_00000062193742765467042120000007502595289725668738_"  style="overflow:visible;"/>
	</clipPath>
	<path style="clip-path:url(#SVGID_00000077317109741372286890000002109349422130240668_);fill:#405C40;" d="M7.8,6.5L7.1,7.1
		C6.8,7.3,6.3,7.3,6,7.1L5.1,6.3L4.6,5.9L0.4,9.4C0.6,9.5,0.8,9.6,1,9.6h11.1c0.2,0,0.5-0.1,0.6-0.2L8.5,5.9L7.8,6.5z"/>
</g>
</svg>
