<?xml version="1.0" encoding="utf-8"?>
<!-- Generator: Adobe Illustrator 27.2.0, SVG Export Plug-In . SVG Version: 6.00 Build 0)  -->
<svg version="1.1" id="Layer_1" xmlns="http://www.w3.org/2000/svg" xmlns:xlink="http://www.w3.org/1999/xlink" x="0px" y="0px"
	 viewBox="0 0 29.8 44.8" style="enable-background:new 0 0 29.8 44.8;" xml:space="preserve">
<style type="text/css">
	.st0{fill:#153424;}
	.st1{fill:#FFFFFF;}
</style>
<g>
	<g>
		<path class="st0" d="M7.5,4.2l3.3,6.8c-0.6-0.1-1.2,0-1.7,0.3c-1,0.5-1.6,1.5-1.6,2.6c-0.7-0.2-1.4-0.1-2.1,0.2
			c-1.1,0.5-1.7,1.6-1.7,2.7c-0.7-0.2-1.4-0.1-2,0.2c-1.4,0.7-2.1,2.4-1.4,3.9l3.6,7.5C4.6,29.6,5.6,31,6.9,32l0.9,0.8
			c1,0.9,1.8,1.9,2.4,3L9.8,36c-0.9,0.4-1.3,1.5-0.9,2.5l2.6,5.3c0.3,0.7,1,1.1,1.8,1l15.1-7.2c0.8-0.5,1.1-1.5,0.7-2.3l-2.6-5.3
			c-0.4-0.9-1.5-1.3-2.4-0.8l-0.4,0.2c-0.5-1.4-0.7-2.9-0.6-4.3l0,0c0.1-1.7,0.9-3.2,2.2-4.3l3.7-3.1c1.2-1.1,0.8-2.3,0.2-3
			c-1.2-1.6-2.7-0.6-3.2-0.3c-0.6,0.3-1.9,0.9-2.5,1.2l-3.3,1.5L12.8,1.6c-0.7-1.4-2.4-2-3.9-1.3C7.5,1,6.9,2.7,7.5,4.2z M11.7,2.2
			l7.6,15.6c0.1,0.2,0.3,0.3,0.6,0.3c0.2,0,2.6-1.2,4.3-2c0.8-0.4,1.5-0.7,2.5-1.2c0.3-0.2,0.6-0.2,0.8-0.3c0.9-0.1,1.6,0.7,1.4,1.5
			c-0.1,0.2-0.2,0.4-0.4,0.6l-4.2,3.4c-1.3,1.1-2.2,2.6-2.3,4.3c0,0.1,0,0.3,0,0.4c-0.1,1.7,0.2,3.4,0.7,4.9l-11.3,5.5
			c-0.7-1.3-1.6-2.4-2.7-3.4l-0.9-0.8c-1.1-1-2-2.2-2.7-3.5l-3.6-7.5c-0.4-0.8,0-1.8,0.8-2.2C3,17.5,4,17.9,4.4,18.7
			C4.6,19,4.9,19.1,5.2,19c0.3-0.1,0.4-0.5,0.3-0.8l-0.4-0.9c-0.4-0.8,0-1.8,0.8-2.2c0.8-0.4,1.8,0,2.2,0.8c0.1,0.3,0.5,0.4,0.8,0.3
			c0.3-0.1,0.4-0.5,0.3-0.8l-0.4-0.8c-0.4-0.8-0.1-1.8,0.8-2.2c0.8-0.4,1.8-0.1,2.2,0.8c0.2,0.3,0.5,0.4,0.8,0.3
			c0.3-0.1,0.4-0.5,0.3-0.8L8.7,3.6c-0.4-0.8,0-1.8,0.8-2.2C10.3,1,11.3,1.3,11.7,2.2z"/>
		<path class="st1" d="M9.4,1.4c0.8-0.4,1.8-0.1,2.2,0.8l7.6,15.6c0.1,0.2,0.3,0.3,0.6,0.3c0.2,0,2.6-1.2,4.3-2
			c0.8-0.4,1.5-0.7,2.5-1.2c0.3-0.2,0.6-0.2,0.8-0.3c0.9-0.1,1.6,0.7,1.4,1.5c-0.1,0.2-0.2,0.4-0.4,0.6l-4.2,3.4
			c-1.3,1.1-2.2,2.6-2.3,4.3c0,0.1,0,0.3,0,0.4c-0.1,1.7,0.2,3.4,0.7,4.9l-11.3,5.5c-0.7-1.3-1.6-2.4-2.7-3.4l-0.9-0.8
			c-1.1-1-2-2.2-2.7-3.5l-3.6-7.5c-0.4-0.8,0-1.8,0.8-2.2C3,17.5,4,17.9,4.4,18.7C4.6,19,4.9,19.1,5.2,19c0.3-0.1,0.4-0.5,0.3-0.8
			l-0.4-0.9c-0.4-0.8,0-1.8,0.8-2.2c0.8-0.4,1.8,0,2.2,0.8c0.1,0.3,0.5,0.4,0.8,0.3c0.3-0.1,0.4-0.5,0.3-0.8l-0.4-0.8
			c-0.4-0.8-0.1-1.8,0.8-2.2c0.8-0.4,1.8-0.1,2.2,0.8c0.2,0.3,0.5,0.4,0.8,0.3c0.3-0.1,0.4-0.5,0.3-0.8L8.7,3.6
			C8.3,2.8,8.6,1.8,9.4,1.4z"/>
		<path class="st1" d="M22.8,35c0.3,0.6,1.1,0.9,1.7,0.6c0.6-0.3,0.9-1.1,0.6-1.7s-1.1-0.9-1.7-0.6C22.8,33.6,22.5,34.3,22.8,35
			L22.8,35z"/>
	</g>
</g>
</svg>
